<?xml version="1.0" standalone="no"?>
<!DOCTYPE svg PUBLIC "-//W3C//DTD SVG 20010904//EN"
 "http://www.w3.org/TR/2001/REC-SVG-20010904/DTD/svg10.dtd">
<svg version="1.0" xmlns="http://www.w3.org/2000/svg"
 width="73.000000pt" height="73.000000pt" viewBox="0 0 73.000000 73.000000"
 preserveAspectRatio="xMidYMid meet">
<metadata>
Created by potrace 1.11, written by Peter Selinger 2001-2013
</metadata>
<g transform="translate(0.000000,73.000000) scale(0.100000,-0.100000)"
fill="#000000" stroke="none">
<path d="M0 365 l0 -365 365 0 365 0 0 365 0 365 -365 0 -365 0 0 -365z m419
110 c79 -40 41 -155 -50 -155 l-39 0 0 -45 c0 -41 -2 -45 -25 -45 l-25 0 0
130 0 130 55 0 c31 0 69 -7 84 -15z"/>
<path d="M330 405 c0 -41 2 -45 24 -45 27 0 56 24 56 45 0 21 -29 45 -56 45
-22 0 -24 -4 -24 -45z"/>
</g>
</svg>
